<?xml version="1.0" encoding="UTF-8"?>
<svg id="_レイヤー_2" data-name="レイヤー 2" xmlns="http://www.w3.org/2000/svg" viewBox="0 0 132.85 65.96">
  <defs>
    <style>
      .cls-1 {
        fill: #5b1415;
      }
    </style>
  </defs>
  <g id="_レイヤー_1-2" data-name="レイヤー 1">
    <g>
      <path class="cls-1" d="M58.05,35.68c.33-.34.83-.5,1.04-.97.02-.05.14-.04.21-.07.19-.08.37-.16.56-.24.02-.34.04-.64.33-.86.26-.2.45-.49.67-.75.06-.08.12-.18.13-.28.03-.31.21-.54.39-.75.38-.44.65-.93.89-1.53-.15-.44-.3-.94-.48-1.43-.1-.27-.24-.54-.52-.66-.45-.19-.88-.41-1.39-.43-.69-.02-1.38-.04-2.06.09-.42.08-.85.2-1.29.08-.07-.02-.16-.02-.22.02-.39.25-.91.12-1.27.47-.11.11-.34.12-.51.13-.26.02-.49.09-.73.2-.2.09-.44.09-.67.13-.1.02-.22-.01-.3.03-.66.34-1.39.24-2.08.42-.03-.12-.07-.19-.07-.27.03-.88.02-1.77-.15-2.64-.09-.46-.13-.92,0-1.39.1-.38-.23-1-.56-1.11-.34-.12-.72-.13-1.05,0-.59.24-1.16.54-1.72.81-.03.06-.07.11-.08.16-.02.18,0,.38-.06.53-.24.57.02.97.44,1.28.5.37.84.83.89,1.49,0,.1.07.2.11.29.22.52.24,1.06.1,1.62-.5.27-.96.61-1.57.58-.15,0-.32.14-.45.26-.22.19-.46.32-.74.38-.65.14-1.29.33-1.83.76-.08.06-.18.11-.27.14-.84.32-1.62.75-2.38,1.24-.12.08-.31.14-.43.11-.51-.15-.95.07-1.4.22-.12.04-.23.09-.35.13-.02.18-.04.34-.06.52-.16.11-.33.22-.47.31-.22.48-.43.92-.63,1.34.44.56.5.59,1.03.38.28-.11.55-.27.83-.41.14.04.28.08.45.13.21-.21.42-.4.61-.6.61-.64,1.27-1.2,2.17-1.35.07-.01.15-.05.2-.1.67-.65,1.5-.98,2.37-1.24.44-.13.83-.4,1.31-.44.09,0,.17-.11.26-.16.38-.21.78-.35,1.21-.46.35.36.42.78.36,1.24-.02.18-.08.36-.04.53.14.68.04,1.36-.04,2.03-.03.29-.06.56-.03.85.06.8.12,1.61.1,2.42,0,.37-.29.76.06,1.11-.07.33-.15.65-.23,1-.18.11-.37.24-.55.36-.06.24-.11.46-.16.65.11.15.21.26.32.4-.19.08-.39.11-.5.22-.36.41-.86.65-1.27,1.07-.21.46-.21.86,0,1.25.13.23.3.37.56.31.34-.09.67-.22,1.01-.35.16-.06.31-.15.52-.26.06.23.18.42.14.56-.23.72.04,1.51-.29,2.22-.02.05.03.14.06.21.02.07.09.18.07.2-.28.33-.15.77-.32,1.11-.13.26-.17.47,0,.72.04.06,0,.19-.03.27-.24.66-.27.81-.11,1.41.17.65.07,1.29-.04,1.94-.29.35-.24.78-.27,1.19-.01.18-.07.36-.1.53-.05.28-.12.56-.12.85,0,.41.16.58.59.67.23.05.45.08.68.13.19.04.33-.03.5-.12.42-.2.72-.56,1.17-.71.47-.15.48-.32.08-.68-.02-.02-.04-.03-.06-.04-.22-.2-.36-.43-.41-.73-.05-.26.02-.45.16-.65.13-.17.14-.4,0-.59-.15-.22-.11-.45-.07-.68.04-.2.13-.41.13-.61,0-.61.19-1.11.66-1.5.19-.16.25-.38.23-.62-1.02-.5-1.32-.97-1.24-1.89,0-.1-.01-.21-.05-.3-.13-.31.19-.37.27-.52-.09-.25-.16-.46-.24-.68.23-.29-.04-.6.03-.96.34-.01.3-.31.34-.54.16-.02.31-.03.5-.05-.01-.25,0-.45-.04-.65-.06-.31-.17-.6-.25-.9-.11-.41-.03-.59.35-.73.16-.06.33-.11.48-.15.09-.52.08-.54.38-.74.3-.21.54-.46.73-.78.24-.4.56-.74.97-.98.17-.1.32-.25.47-.39.35-.33.68-.69,1.05-1.01.43-.37.9-.68,1.33-1.06.62-.54,1.23-1.1,1.8-1.69ZM54.23,37.47c-.2.16-.38.35-.56.53-.43.38-.76.7-1.13.99-.36.28-.81.47-1.11.81-.32.35-.7.37-1.08.51-.19-.22-.29-.43-.16-.67.1-.18.1-.33.06-.52-.04-.2-.04-.41-.02-.62.06-.69-.07-1.39.05-2.08-.22-.31-.05-.66-.12-.99.23-.48.08-.95,0-1.42-.02-.09-.02-.22.03-.29.26-.35.17-.75.16-1.14,0-.34-.03-.67.07-1.01.12-.39.35-.68.72-.74.58-.1,1.1-.42,1.71-.42.21,0,.43-.14.63-.26.39-.24.8-.33,1.25-.3.41.03.8-.01,1.2-.15.52-.18,1.07-.03,1.6.02.73.07,1.2.5,1.44,1.19.03.1.1.18.15.26-.05.26-.33.41-.22.73.09.24-.06.45-.2.64-.22.29-.44.58-.63.89-.17.28-.41.47-.65.66-.28.23-.52.47-.66.84-.1.28-.34.52-.55.74-.62.66-1.3,1.25-2,1.81Z"/>
      <path class="cls-1" d="M113.66,31.38c.06-.04.22-.01.28.04.17.13.31.09.49.02.69-.27,1.33-.3,1.85.38.12.16.34.25.47.4.2.25.46.3.73.33.16-.15.24-.36.51-.32.22.03.45-.01.7-.02.12-.21.23-.41.29-.53.62-.21,1.15-.38,1.68-.56.07-.02.15-.08.17-.14.07-.19.19-.28.38-.34.1-.03.18-.17.23-.28.2-.45.14-.91.09-1.38-.37-.11-.64-.45-1.07-.27-.07.03-.23-.16-.35-.25-.09.03-.17.04-.24.07-.52.24-1.03.49-1.57.07-.38.02-.75-.14-1.12-.01-.1.18-.18.34-.27.5-.26.45-.38.49-.86.3-.11-.05-.24-.07-.35-.07-.23,0-.46.02-.72.04-.06.26-.21.44-.52.44-.15,0-.3.06-.45.09-.65.17-1.3.32-1.97.28-.72-.04-1.42.11-2.11.31-.1.03-.21.12-.28.09-.41-.13-.82.01-1.21-.04-.32-.05-.6-.04-.9.1-.14.06-.3.1-.45.1-.25,0-.51-.04-.76-.02-.25.02-.48.11-.73.15-.55.1-1.11.14-1.65.28-.62.15-1.22.38-1.83.57-1.2.37-2.44.57-3.6,1.08-.16.07-.35.09-.53.08-.35-.01-.65.1-.96.25-.23.11-.48.27-.71.27-.63-.01-.97.42-1.33.81-.11.12-.11.39-.11.59,0,.09.15.22.25.25.14.03.3-.01.45-.03.15-.02.3-.11.44-.09.41.06.75-.08,1.08-.31.23-.16.46-.34.77-.32.07,0,.17-.02.21-.07.19-.28.5-.24.76-.33.51-.17,1.06-.25,1.54-.48.66-.3,1.37-.34,2.05-.55.55-.17,1.16-.07,1.72-.28.07-.03.16-.03.22,0,.36.11.71-.03,1.06-.07.28-.03.55-.08.89-.13-.06.26-.11.45-.15.62.45.57.88,1.11.87,1.88,0,.1.07.2.06.31,0,.23-.03.46-.06.69-.01.1-.11.21-.09.29.13.55-.07,1.08-.06,1.62,0,.39-.04.78-.09,1.17-.03.23-.16.45-.17.68-.05.89-.26,1.74-.44,2.61-.13.63-.39,1.25-.31,1.9.05.43,0,.82-.08,1.23-.02.08-.02.16-.03.23-.13.79-.04,1.62-.37,2.38-.04.09,0,.21,0,.31-.03.47-.09.93-.1,1.4,0,.49-.07.98-.12,1.47-.05.49-.06.99-.19,1.47-.03.09-.02.22.01.31.11.3.03.56-.14.81-.13.18-.19.37-.06.58.15.25.1.54.02.76-.14.42-.32.8-.19,1.26.02.08-.06.2-.1.29-.07.14-.15.27-.24.41.2.35.27.72.12,1.06-.14.32-.14.66-.23,1.05-.1.55.03,1.06-.26,1.51-.03.05.01.15,0,.23-.06.43-.02.88-.25,1.29-.07.13-.06.3-.07.46-.03.5.11,1.04-.32,1.46-.06.05-.04.2-.04.3,0,.29.02.57.04.86.01.18.03.37.08.54.02.08.14.16.22.17.08,0,.21-.05.25-.12.24-.43.47-.86.69-1.31.05-.11.08-.27.04-.37-.09-.22-.04-.4.05-.6.2-.4.3-.83.3-1.29,0-.74.3-1.42.45-2.13.05-.25.18-.43.07-.72-.1-.28-.1-.62.15-.88.15-.16.21-.35.16-.58-.01-.06.02-.15.07-.2.12-.14.13-.26.04-.42-.22-.36-.2-.74-.08-1.12.08-.25.11-.53.25-.73.19-.25.14-.49.09-.74-.02-.12-.09-.23-.14-.34.16-.14.3-.25.41-.35-.04-.19-.14-.37-.09-.48.23-.51.17-1.01.04-1.52-.07-.26-.06-.52.07-.76.1-.19.15-.38.09-.6-.04-.15,0-.31.01-.47.02-.31,0-.63.07-.93.07-.33.24-.63.08-.98-.03-.07.07-.19.09-.28.03-.15.06-.3.08-.44.01-.13-.05-.29,0-.38.33-.54.24-1.14.3-1.72.02-.16,0-.35.08-.46.31-.39.17-.85.21-1.28.02-.21-.01-.42.02-.62.12-.79.37-1.55.46-2.35.03-.25.18-.49.24-.74.05-.22.07-.43.22-.64.12-.17.04-.49.05-.74,0-.05.02-.11.05-.15.15-.17.12-.39.17-.58.06-.22.19-.42.31-.62.18-.28.23-.56.12-.89-.06-.19-.06-.41-.04-.61.04-.44.02-.93.2-1.31.21-.41.26-.82.34-1.25,0-.05.03-.11.07-.14.19-.14.17-.36.21-.56.04-.2.12-.39.19-.57.14-.02.24-.03.34-.05.34-.1.68-.26,1.02-.32.34-.06.71.04,1.03-.05.4-.1.83.02,1.2-.23Z"/>
      <path class="cls-1" d="M132.76,44.95c-.1-.08-.21-.14-.33-.19-.23-.1-.46-.2-.67-.29-.28.06-.56.17-.83.17-.49,0-.89.24-1.1.61-.29.52-.73.7-1.22.83-.19.05-.39.03-.6.05-.03.18-.05.33-.08.52-.35.1-.72.2-1.08.33-.82.27-1.66.34-2.51.26-.19-.02-.41-.08-.56-.2-.37-.29-.79-.49-1.22-.65-.32-.12-.59-.32-.85-.52-.1-.08-.17-.2-.02-.34.24.06.53.06.71.2.29.23.55-.05.81.06.02.01.05.01.07.02.41.15.81.06,1.21-.04.22-.05.46-.13.68-.1.46.07.84-.11,1.23-.31.33-.17.52-.48.78-.72.31-.29.51-.65.78-.96.27-.3.65-.53.64-1.01,0-.02.03-.05.05-.06.42-.25.39-.75.64-1.08-.46-.51-1.05-.84-1.24-1.49-.39-.05-.75-.13-1.1-.13-.38,0-.69-.15-.98-.35-.26.1-.49.17-.76.05-.21-.09-.44-.12-.66.03-.08.06-.2.1-.29.08-.35-.07-.63.18-.96.21-.18.01-.36.13-.4.32-.08.4-.36.63-.63.87-.34.29-.6.61-.79,1.03-.18.41-.43.78-.92.87-.07.01-.16.04-.2.1-.33.43-.72.83-.75,1.42,0,.14-.02.26-.14.33-.43.25-.39.7-.42,1.1-.02.2-.02.48.1.6.26.28.45.65.82.81.14.06.28.13.4.23.44.38.95.6,1.57.72.21.04.39.02.51.1.56.41,1.27.38,1.85.7.04.02.11.03.15,0,.23-.11.44-.05.67,0,.13.03.29-.03.43-.06.47-.12.93-.24,1.39-.39.27-.09.43.22.65.15.24-.07.45-.21.72-.1.04.02.09-.02.14-.03.09-.15.17-.31.25-.45.25-.03.48-.07.71-.09.22-.01.41-.07.47-.32.04-.15.13-.21.28-.21.19,0,.33-.07.46-.23.18-.23.59-.23.64-.62,0-.04.12-.09.19-.11.52-.11.87-.37,1-.93.03-.15.23-.25.35-.38.1-.11.1-.34-.02-.43ZM123.21,42.72c.35-.03.49-.38.76-.47.31-.1.37-.42.65-.61.18.03.41.06.63.09.19.03.32.15.42.31.15.24.13.43-.06.63-.21.22-.42.44-.74.79-.08.02-.32.09-.57.16-.31.14-.5.06-.67-.07-.16-.12-.31-.26-.46-.39-.16-.14-.16-.42.03-.43Z"/>
      <path class="cls-1" d="M98.39,46.46c-.3-.13-.57-.25-.85-.37-.05-.29-.09-.55-.14-.8-.1-.49-.21-.96-.6-1.32-.2-.19-.32-.47-.45-.72-.31-.6-.3-.6.23-1.08.4-.36.56-.93.27-1.33-.22-.3-.34-.63-.48-.96-.23-.57-.77-.81-1.18-1.19-.03-.03-.09-.04-.14-.05-.38-.07-.78-.11-1.14.03-.52.2-1.08.33-1.5.75-.11.11-.23.22-.37.27-.46.17-.75.55-1,.92-.24.36-.52.65-.84.9-.45.35-.77.81-1.15,1.22-.3.33-.52.7-.53,1.18,0,.13-.04.26-.1.38-.25.52-.33,1.09-.49,1.64-.11.39-.03.81-.22,1.19-.04.09.03.25.08.36.08.16.19.3.28.43.53.08,1.02.03,1.44-.25.35-.23.73-.35,1.12-.47.12-.04.28-.06.34-.15.18-.27.4-.46.71-.57.11-.04.22-.15.27-.26.14-.29.36-.42.65-.5.11-.03.21-.14.35-.25.24-.24.45-.41.73-.51.2-.07.42-.2.48-.47.02-.08.09-.14.17-.25.19.36.35.65.5.95.03.06.05.16.03.23-.07.26.05.47.15.67.13.24.16.48.2.74.06.42.05.89.53,1.13.09.05.12.22.19.33.06.08.13.22.2.22.4.04.56.42.81.59.21-.08.37-.14.53-.2.32.34.53.04.68-.16.18-.24.3-.54.42-.83.16-.35.23-.68-.08-1.01-.09-.09-.08-.28-.11-.41ZM93.36,42.67c-.1.39-.34.62-.71.75-.25.09-.37.37-.63.51-.35.18-.62.53-.92.8-.45.31-.8.57-1.13.81-.21-.06-.2-.19-.18-.32.14-.89.46-1.7.97-2.43.01-.02.03-.05.05-.06.33-.24.57-.56.83-.87.24-.29.61-.47.87-.76.27-.3.6-.45,1.02-.59-.16.39-.3.75-.45,1.14.17.25.32.48.49.73-.06.08-.17.18-.2.29Z"/>
      <path class="cls-1" d="M65.61,46.27c-.19-.08-.28-.29-.29-.52,0-.16-.04-.31-.03-.46,0-.14.05-.29.06-.37-.27-.17-.49-.29-.69-.43-.14-.1-.16-.27-.12-.42.04-.12.08-.27.17-.35.32-.29.3-.69.36-1.07.06-.37-.02-.67-.32-.9-.17-.13-.29-.27-.24-.52.02-.09-.1-.25-.19-.32-.18-.14-.39-.28-.6-.33-.29-.06-.52-.22-.76-.36-.13-.08-.25-.18-.39-.24-.36-.16-.76-.3-1.1-.06-.42.29-.93.46-1.26.88-.22.28-.51.4-.82.45,0,.15.04.29,0,.35-.25.29-.52.56-.82.88-.14.25-.18.47-.37.64-.32.29-.61.63-.87.98-.3.41-.48.92-.87,1.27-.05.05-.08.13-.11.2-.15.33-.26.68-.44.99-.31.56-.18,1.04.18,1.51.34.45.75.79,1.29.85,1.16-.24,2.23-.65,3.21-1.28.13-.08.26-.15.38-.25.26-.21.49-.45.87-.44.1,0,.2-.14.3-.22.33-.24.57-.22.79.1.1.15.17.32.23.42-.05.24-.08.41-.11.55.3.42.69.6,1.09.79.43.2.83.18,1.25-.03.27-.14.57-.23.85-.34.18-.06.33-.14.38-.37-.04-.13-.08-.28-.14-.42-.18-.46-.34-.93-.85-1.15ZM62.32,44.11c-.04.09-.09.23-.16.25-.36.09-.35.41-.44.69-.12.02-.24.04-.42.07-.05.2-.1.42-.15.64-.11.15-.16.22-.23.26-.25.13-.51.23-.74.38-.21.14-.37.36-.57.51-.34.25-.76.28-1.15.37-.17.04-.4-.07-.58-.15-.25-.1-.29-.23-.24-.5.22-.97.25-.96.9-1.92.26-.38.57-.72.83-1.09.25-.35.5-.71.93-.88.11-.04.21-.17.26-.28.13-.26.38-.32.59-.27.41.1.86.17,1.08.62.1.21.2.42.31.65-.07.2-.14.42-.23.64Z"/>
      <path class="cls-1" d="M120.09,41.52c.05-.4.35-.56.66-.68.41-.15.6-.47.68-.89-.02-.06-.04-.14-.07-.21-.26-.6-.81-.78-1.37-.48-.52.28-1.04.54-1.56.83-.18.1-.37.2-.5.35-.22.25-.38.56-.59.82-.21.27-.59.4-.61.82-.23.15-.34.37-.45.62-.22.47-.64.61-1.17.64-.02-.32-.01-.61-.05-.89-.07-.46-.14-.93-.25-1.38-.08-.34-.32-.54-.68-.51-.25.02-.5.07-.75.14-.17.05-.32.17-.48.25-.49.26-.68.61-.6,1.14.06.41.23.79.2,1.23-.01.13.17.27.19.41.03.16-.09.39-.02.5.19.3.03.49-.13.69-.03.04-.03.09-.04.14.09.19.17.37.25.56-.24.14-.36.32-.36.59,0,.2,0,.43-.07.61-.14.35-.19.7-.21,1.03q.52.68,1.19.93c.29-.08.42.25.67.31.28-.42.78-.34,1.17-.55.1-.2.2-.41.34-.67.05-.06.07-.09.09-.1.27-.18.42-.36.38-.76-.06-.52.04-1.07.18-1.59.03-.12.11-.23.2-.32.37-.41.91-.64,1.2-1.15.02-.04.08-.07.12-.09.26-.13.46-.31.6-.58.08-.15.25-.25.4-.35.57-.37.98-.9,1.42-1.42Z"/>
      <path class="cls-1" d="M77.36,40.87c.04-.33-.12-.54-.5-.54-.08,0-.15-.13-.24-.17-.11-.06-.23-.14-.34-.14-.41,0-.82.04-1.23.07-.04,0-.08.05-.12.08-.04.12-.07.23-.11.37-.17-.06-.3-.11-.44-.15-.42.35-.68.76-.72,1.33.17.08.33.15.48.22,0,.37.3.71.03,1.06-.12.05-.24.09-.37.15-.02.71-.38,1.18-.99,1.41-.44.16-.8.34-.95.81-.02.06-.11.11-.17.16-.34.28-.65.58-1.01.82-.33.21-.65.52-1.11.38-.05-.19-.17-.38-.14-.54.1-.48-.04-.93-.07-1.4-.04-.66.07-1.3.29-1.91.11-.3.27-.58.62-.63.38-.05.54-.36.75-.62.12-.16.14-.33.05-.51-.1-.21-.25-.33-.48-.33-.46-.02-.91.16-1.17.49-.37.46-.88.71-1.33,1.11.06.37-.03.74-.21,1.1-.1.2-.11.39-.03.6.04.09,0,.2-.02.37-.11.53-.11,1-.04,1.47.03.21.04.4-.02.61-.11.38,0,.77.07,1.15.01.07.06.16.12.19.26.16.52.35.81.42.28.07.61.08.85-.21.07-.09.21-.15.32-.15.34-.02.63-.16.94-.29.48-.2.84-.57,1.29-.81.42-.23.81-.54,1.17-.86.2-.18.31-.47.64-.47.1-.3.28-.55.49-.78.21-.23.41-.45.75-.51.22-.04.44-.16.61-.3.32-.27.62-.54,1-.71.08-.04.18-.14.19-.22.03-.24.1-.4.35-.43.05,0,.1-.11.12-.18.09-.29.16-.59.25-.92-.11-.18-.43-.22-.39-.57Z"/>
      <path class="cls-1" d="M85.85,45.3c.31-.53.08-.99-.12-1.43-.29-.18-.62-.24-.84-.09-.33.21-.59.04-.88,0-.28-.04-.53-.13-.75-.35-.16-.15-.4-.22-.59-.32-.12.09-.22.16-.33.25-.15-.1-.3-.2-.45-.29-.22-.13-.42-.27-.71-.18-.24.08-.45-.08-.56-.31-.11-.25.09-.4.24-.52.5-.44,1.08-.75,1.59-1.18.39-.33.87-.53,1.26-.87.22-.19.49-.36.84-.21.17.07.39.01.61.01q.14-.32.62-.56c-.37-.23-.23-.59-.26-.88-.26-.19-.49-.35-.72-.52-.28.1-.55.18-.81.29-.11.05-.21.14-.3.23-.61.64-1.34,1.12-2.04,1.63-.66.48-1.32.98-1.98,1.46-.31.23-.59.49-.8.8,0,.3.01.59,0,.88-.02.35.11.61.39.8.17.11.33.25.51.35.42.24.83.44,1.35.48.63.05,1.23.34,1.82.68-.2.27-.38.49-.54.72-.14.2-.31.33-.56.37-.28.04-.53.14-.64.48-.05.14-.27.21-.42.3-.15.1-.33.16-.44.29-.21.26-.46.46-.73.67-.25.19-.57.38-.51.8.43.36.46.37.87.38.49.01.86-.2,1.16-.59.07-.1.18-.23.28-.24.61-.08,1.05-.47,1.52-.81.12.02.24.04.36.06.09-.21.11-.42.35-.51.29-.11.55-.27.72-.56.05-.1.2-.14.31-.2.09-.05.21-.09.25-.17.23-.51.69-.65,1.16-.77,0,0,0,0-.05-.03-.08-.13-.17-.26-.13-.31Z"/>
      <path class="cls-1" d="M85.97,45.75s.03-.06.05-.1c0,0,0,0-.02.01-.03.04-.03.06-.04.09Z"/>
      <path class="cls-1" d="M86.03,45.65s0,0,0,0c0,0,0,0,0,0Z"/>
      <path class="cls-1" d="M23.88,35.53c-.98.94-1.65,2.15-2.18,3.32-1.33,2.93-1.79,6.29-2.92,9.22-.98.15-2.03.04-2.99-.22-1.95-.54-3.8-1.58-5.8-1.72-1.42-.1-2.87.29-4.1,1.06-.06-.12-.11-.24-.17-.37-1.47-3.47-2.22-7.21-2.5-10.97,6.35-.5,12.75-1.1,19.04-2-6.87-.6-13.82-.83-20.72-.97-.84-.02-1.52.69-1.5,1.53-.24,4.68.31,9.47,2,13.9.87,2.27,2.14,4.59,3.89,6.38.17.19.36.36.54.53-.16,0-.32,0-.48-.01-.16,0-.3.08-.38.21l-1.53,2.68c-.07.13-.07.29,0,.42.08.13.21.21.36.21h0l17.87-.17c.16,0,.31-.1.38-.25.09-.2.3-.66.01-1.12-.3-.47-1.02-.96-4.53-1.36.21-.16.41-.32.6-.49,2.26-1.96,3.37-4.54,4.13-7.27.46.02.92.02,1.39,0,3.66-.15,5.84-2.71,6.6-6.14.44-1.99.44-4.26-.74-6.08-1.55-2.3-4.45-2.15-6.31-.32ZM27.68,45.37c-1.08,1.53-2.89,2.15-4.69,2.49.51-1.91.86-3.87,1.31-5.75.35-1.35.76-2.68,1.37-3.7.25-.42.56-.86.96-1.13,1.4-.93,2.09,1.22,2.25,2.33.24,1.89-.05,4.15-1.19,5.75Z"/>
      <path class="cls-1" d="M15.61,1.15c1.77.21,2.61,2.22,2.23,3.79-.41,1.59-1.98,2.65-3.55,2.87-.63.09-1.12.63-1.13,1.29-.01.73.57,1.33,1.3,1.34.34,0,.68.08,1.01.23,1.01.47,1.77,1.54,2.03,2.62.77,4.02-2.1,7.25-3.32,11.02-.69,2.03-.96,4.46.06,6.41-.55-4.41,2.67-7.43,4.62-11.15,1.74-3.18,2.31-7.5-.61-10.25-.13-.12-.26-.24-.4-.35.43-.36.82-.77,1.15-1.23,1.04-1.42,1.29-3.41.61-5.02C19,1.13,17.38-.17,15.61.02c-1.53.13-3.08,1.28-3.17,2.88.48-1.24,1.92-1.92,3.16-1.75Z"/>
    </g>
  </g>
</svg>