<?xml version="1.0" encoding="UTF-8"?>
<svg id="_レイヤー_2" data-name="レイヤー 2" xmlns="http://www.w3.org/2000/svg" viewBox="0 0 83.14 84.91">
  <defs>
    <style>
      .cls-1 {
        fill: #652725;
      }
    </style>
  </defs>
  <g id="_レイヤー_1-2" data-name="レイヤー 1">
    <g>
      <path class="cls-1" d="M15.6,54.84c.14-.05.29-.11.32-.25.03-.15-.09-.28-.23-.4-.01-.01-.02-.02-.04-.03-.14-.12-.22-.27-.25-.45-.03-.14,0-.24.09-.37.12-.16.12-.37,0-.53-.08-.11-.06-.23-.03-.39,0-.05.02-.1.04-.15.03-.1.06-.19.05-.3,0-.4.13-.72.42-.96.15-.13.22-.31.2-.52v-.06s-.06-.03-.06-.03c-.67-.33-.86-.61-.81-1.21,0-.08,0-.18-.05-.26-.03-.06-.02-.08.07-.15.04-.03.09-.07.12-.13l.02-.04-.17-.47c.08-.14.05-.28.03-.41-.01-.06-.03-.12-.03-.18.2-.05.22-.25.23-.37l.36-.04v-.1c0-.05,0-.11-.01-.15,0-.11,0-.21-.03-.31-.03-.14-.07-.29-.11-.42-.02-.07-.04-.14-.06-.21-.06-.23-.03-.3.18-.38.08-.03.15-.05.23-.07l.16-.05.02-.11q.05-.29.21-.4c.22-.15.39-.34.54-.58.17-.28.38-.5.64-.65.12-.07.22-.16.32-.26l.03-.03c.09-.09.18-.18.27-.27.15-.15.3-.3.45-.43.14-.12.29-.24.44-.35.16-.12.33-.25.49-.39.35-.31.82-.73,1.26-1.18.08-.08.17-.14.27-.21.18-.12.36-.25.46-.47,0,0,.01,0,.02,0,.03,0,.06-.01.08-.02.09-.04.19-.08.28-.12l.17-.07v-.09c.02-.22.03-.38.19-.5.15-.11.26-.26.38-.41.03-.04.07-.09.1-.13.04-.05.1-.14.11-.25.02-.18.13-.32.25-.46.25-.29.45-.63.63-1.09v-.04s0-.04,0-.04c-.03-.09-.06-.18-.09-.27-.08-.24-.15-.48-.25-.73-.07-.19-.18-.42-.42-.52l-.14-.06c-.27-.12-.54-.24-.86-.24h-.07c-.45-.01-.92-.02-1.39.06-.05,0-.1.02-.15.03-.24.05-.47.1-.7.03-.07-.02-.17-.02-.24.02-.1.07-.23.09-.36.11-.18.03-.38.07-.54.23-.04.04-.16.05-.25.06h-.05c-.19.02-.36.07-.54.15-.09.04-.19.05-.3.06-.05,0-.09.01-.14.02-.02,0-.04,0-.07,0-.06,0-.12,0-.18.03-.26.14-.55.16-.85.19-.16.02-.32.03-.48.06,0-.02-.01-.05-.01-.06.02-.51.03-1.19-.11-1.86-.07-.38-.07-.65,0-.92.08-.31-.17-.8-.46-.9-.28-.09-.56-.09-.8,0-.3.12-.58.26-.86.4-.12.06-.23.11-.34.17l-.03.02-.02.03s-.01.02-.02.03c-.02.03-.04.06-.05.11,0,.05,0,.1,0,.15,0,.08,0,.15-.03.2-.16.39-.05.72.34,1.02.37.27.55.58.58.96,0,.07.04.13.06.19,0,.02.02.03.02.05.13.32.16.65.07,1.02-.05.03-.09.05-.14.08-.27.16-.53.31-.86.29-.14,0-.28.11-.39.21-.15.13-.3.2-.47.24-.42.09-.91.22-1.32.55-.04.03-.09.06-.16.08-.54.2-1.07.48-1.68.88-.07.05-.17.08-.21.06-.33-.1-.62,0-.89.11-.05.02-.1.03-.14.05-.06.02-.11.04-.17.06l-.14.05-.04.37-.31.2-.48,1.02.04.05c.32.42.41.47.84.3.14-.06.28-.13.41-.2.05-.02.09-.05.14-.07l.33.1.18-.18c.1-.1.2-.19.29-.29.46-.48.89-.82,1.45-.91.07-.01.14-.05.19-.1.48-.46,1.08-.68,1.6-.84.12-.04.23-.09.34-.13.18-.08.35-.15.54-.17.07,0,.13-.05.17-.09.02-.01.03-.03.05-.04.22-.12.47-.22.76-.29.16.19.22.42.18.74,0,.03,0,.06-.01.09-.02.1-.04.21-.01.32.09.42.04.84-.01,1.26v.12c-.04.19-.05.4-.04.61.05.56.08,1.11.07,1.67,0,.07-.02.14-.04.21-.04.18-.1.4.07.6l-.14.6-.38.25-.13.55.16.21c-.09.03-.19.06-.25.14-.12.14-.27.25-.43.37-.15.11-.31.23-.45.38l-.02.03c-.16.36-.16.66,0,.97.16.29.36.3.51.27.22-.06.44-.14.65-.22l.06-.02c.08-.03.15-.07.24-.12,0,0,.01,0,.02-.01,0,.01,0,.02.01.04.02.07.05.14.04.17-.08.25-.08.5-.08.74,0,.28,0,.54-.12.79-.03.07,0,.14.02.19,0,.01.01.02.01.04,0,.02.02.05.03.07,0,0,0,0,0,.01-.1.15-.12.31-.14.46-.01.11-.02.21-.07.29-.09.18-.15.38,0,.59,0,0,0,.03-.03.11-.17.48-.2.6-.08,1.04.11.41.06.81-.02,1.28-.17.22-.18.47-.19.71,0,.05,0,.11,0,.16,0,.07-.02.14-.04.22-.01.05-.02.1-.03.15,0,.05-.02.11-.03.16-.03.14-.06.29-.06.45,0,.33.14.5.49.57.08.02.15.03.23.04.08.01.16.03.24.05.03,0,.06,0,.09,0,.12,0,.21-.05.32-.1.13-.06.25-.15.37-.23.14-.1.28-.2.44-.25ZM15.53,43.07c-.02-.11-.03-.24-.01-.4.02-.22.01-.43,0-.65,0-.27-.02-.53.03-.79v-.04s-.02-.04-.02-.04c-.07-.1-.06-.22-.06-.35,0-.09.01-.17,0-.26.13-.3.08-.58.02-.86-.01-.05-.02-.11-.03-.16-.01-.07,0-.11,0-.13.17-.23.15-.48.14-.7,0-.05,0-.1,0-.15v-.09c0-.2-.01-.39.04-.58.08-.26.22-.41.42-.44.17-.03.34-.09.49-.14.23-.08.44-.15.68-.15.17,0,.33-.1.49-.2.25-.15.51-.21.8-.2.32.02.6-.01.88-.11.26-.09.53-.05.82-.01.08.01.17.02.25.03.45.05.75.3.91.76.02.06.05.11.08.15h0s-.04.09-.06.12c-.06.1-.15.23-.08.42.04.1-.02.2-.13.35-.15.2-.31.4-.44.63-.1.17-.25.29-.4.41l-.03.02c-.19.15-.38.33-.49.63-.06.16-.19.3-.32.44l-.04.04c-.38.41-.82.8-1.38,1.25-.1.08-.19.17-.28.26-.04.04-.08.08-.12.11-.1.09-.19.17-.27.24-.18.16-.34.31-.51.44-.09.07-.2.14-.3.2-.17.11-.35.22-.48.37-.14.16-.31.2-.5.26-.05.01-.09.03-.14.04-.1-.14-.1-.21-.05-.29.09-.16.08-.3.05-.43Z"/>
      <path class="cls-1" d="M65.12,35.94l-.07-.02c-.07-.02-.14-.06-.21-.1-.16-.09-.34-.18-.57-.1-.02-.02-.06-.05-.08-.07-.03-.03-.06-.06-.09-.08l-.04-.03h-.05s-.04.02-.06.03c-.04.01-.08.02-.13.04-.35.16-.66.31-.98.06l-.03-.02h-.04c-.09,0-.18,0-.28-.02-.17-.02-.35-.04-.53.02h-.04s-.08.17-.08.17c-.04.08-.08.15-.12.23-.15.27-.18.28-.47.16-.09-.04-.19-.06-.29-.06-.11,0-.23,0-.35.01h-.24s-.02.09-.02.09c-.04.16-.12.23-.26.23-.1,0-.18.02-.27.05l-.07.02c-.4.11-.87.22-1.34.19-.55-.03-1.07.1-1.5.22-.03,0-.06.02-.09.04-.02,0-.05.02-.04.03-.18-.06-.36-.05-.53-.04-.12,0-.22.02-.33,0-.2-.03-.43-.04-.68.08-.08.04-.17.06-.27.06-.08,0-.15,0-.23,0-.1,0-.2-.02-.31,0-.11,0-.21.04-.32.06-.07.02-.13.03-.2.05-.13.02-.27.04-.4.06-.25.04-.5.07-.75.13-.29.07-.57.17-.85.26-.14.05-.29.1-.43.14-.3.09-.6.17-.9.25-.54.14-1.09.28-1.62.51-.11.05-.23.05-.32.05-.29,0-.53.09-.72.18-.03.01-.06.03-.09.05-.12.06-.25.13-.35.13,0,0-.01,0-.02,0-.44,0-.71.29-.94.54l-.05.06c-.1.11-.11.31-.1.49,0,.12.14.24.25.27.1.02.2,0,.29-.01h.06s.09-.03.13-.04c.05-.02.11-.03.14-.03.28.04.54-.03.84-.24.15-.11.28-.21.46-.19.06,0,.18-.01.24-.09.07-.1.16-.12.3-.15.06-.01.11-.02.17-.04.13-.04.26-.08.39-.11.23-.06.47-.12.69-.22.27-.13.55-.18.85-.24.18-.04.38-.08.56-.13.17-.05.34-.06.53-.08.22-.02.45-.04.67-.12.03,0,.06-.01.09,0,.21.06.4.02.59-.01.06-.01.13-.03.19-.03.13-.02.26-.04.4-.06h.06s-.08.32-.08.32l.03.04c.3.38.59.74.58,1.24,0,.05.01.1.03.14,0,.03.02.05.02.07,0,.14-.02.29-.04.47,0,.01-.01.04-.02.06-.02.05-.05.11-.04.18.05.22.02.43,0,.66-.02.15-.04.3-.04.45,0,.25-.02.5-.06.8,0,.06-.03.13-.05.2-.03.09-.06.18-.07.28-.03.49-.13.98-.23,1.45-.02.12-.05.24-.07.35-.02.12-.06.24-.09.37-.08.32-.17.65-.13.99.04.31,0,.59-.05.82,0,.03-.01.07-.01.1,0,.02,0,.05,0,.07-.03.2-.05.4-.06.59-.03.37-.05.71-.19,1.05-.03.06-.02.13-.01.18,0,.02,0,.05,0,.07,0,.11-.02.22-.03.33-.02.21-.04.43-.04.65,0,.27-.03.54-.06.81l-.02.21c0,.09-.02.17-.02.26-.02.26-.04.5-.11.74-.02.09-.02.19.01.28.06.16.03.3-.09.47-.13.19-.14.36-.05.52.07.11.07.26,0,.44l-.04.11c-.09.25-.18.52-.1.82,0,.02-.03.07-.04.09l-.02.04c-.03.06-.07.13-.11.19l-.08.14.03.05c.13.23.16.45.08.65-.07.16-.09.31-.12.48-.01.09-.03.18-.05.27h0c-.02.14-.03.28-.03.41,0,.23-.01.43-.13.61-.04.05-.03.12-.02.16,0,.01,0,.03,0,.04-.01.08-.02.17-.02.25-.02.22-.03.42-.14.61-.05.1-.06.21-.06.31v.05c0,.08,0,.17,0,.25,0,.27.01.5-.19.7-.07.07-.07.17-.06.26v.02c0,.23.01.42.03.61.01.14.02.27.06.4.03.1.15.18.24.19,0,0,.02,0,.02,0,.09,0,.21-.05.26-.14.17-.3.33-.61.48-.92.04-.09.07-.24.03-.34-.05-.12-.02-.21.03-.33.15-.3.22-.62.22-.94,0-.33.09-.63.18-.96.05-.16.1-.33.13-.5,0-.04.02-.08.03-.12.04-.12.08-.26.01-.44-.03-.09-.09-.32.08-.5.13-.14.18-.31.14-.49,0-.01.01-.04.02-.06.11-.13.12-.27.03-.42-.12-.19-.13-.41-.04-.69.02-.05.03-.11.04-.16.03-.12.06-.23.12-.31.16-.21.12-.4.08-.57v-.02c-.02-.07-.05-.13-.08-.19l.27-.23v-.06s-.04-.09-.05-.14c-.01-.05-.04-.11-.03-.13.18-.41.12-.8.03-1.13-.05-.17-.03-.32.04-.45.09-.17.12-.33.07-.49-.01-.06,0-.12,0-.2,0-.03,0-.06,0-.1,0-.06,0-.13,0-.19,0-.15,0-.3.04-.44.01-.05.03-.1.04-.15.05-.17.11-.37.02-.58,0-.01.01-.03.02-.04.02-.03.03-.07.04-.11.03-.13.05-.23.06-.32,0-.05,0-.09,0-.13,0-.03,0-.08,0-.09.18-.3.19-.62.21-.92,0-.11,0-.21.02-.32,0-.03,0-.06,0-.1,0-.06,0-.14.03-.17.18-.23.17-.48.17-.7,0-.09,0-.17,0-.25,0-.07,0-.14,0-.21,0-.08,0-.15,0-.22.04-.24.09-.49.15-.72.07-.3.14-.61.17-.92,0-.09.05-.17.08-.26.03-.08.06-.15.08-.24,0-.03.01-.06.02-.09.03-.12.05-.22.12-.32.08-.11.07-.26.06-.41,0-.06,0-.11,0-.17,0-.02,0-.04,0-.04.09-.1.11-.22.12-.32,0-.04.01-.08.02-.12.04-.14.12-.27.2-.4.15-.23.18-.46.09-.71-.03-.1-.04-.22-.02-.38,0-.08.01-.16.02-.24.01-.23.03-.46.12-.64.13-.27.18-.54.23-.79l.02-.1s0-.03,0-.03c.14-.11.16-.26.18-.38,0-.03,0-.05.01-.08.02-.09.05-.18.08-.26,0-.02.02-.04.02-.06,0,0,.02,0,.02,0,.06,0,.11-.01.16-.03.08-.03.17-.05.25-.08.16-.06.3-.11.45-.13.1-.02.2-.01.31,0,.14,0,.28,0,.42-.03.09-.02.19-.03.3-.03.19,0,.38-.02.56-.13.02,0,.07,0,.09.02.17.13.32.07.44.03.53-.21.88-.14,1.17.23.05.07.12.12.19.17.05.04.1.08.14.12.17.21.39.25.58.27h.05s.03-.03.03-.03c.03-.03.05-.05.07-.08.07-.09.11-.12.19-.11.12.02.24,0,.35,0,.05,0,.1,0,.15-.01h.06s.21-.38.21-.38l.26-.09c.31-.1.59-.2.87-.29.07-.02.15-.08.18-.16.03-.09.08-.14.2-.17.09-.03.16-.11.23-.25.15-.33.11-.68.07-1.02v-.07Z"/>
      <path class="cls-1" d="M65.56,47.78c.15.12.31.09.42.06.08-.02.13-.03.17,0,.01,0,.03.01.06.02.32.11.63.04.9-.02l.09-.02c.12-.03.24-.06.34-.05.35.05.62-.07.92-.23.17-.09.29-.22.41-.35.05-.06.1-.11.16-.16.13-.13.24-.27.34-.4.07-.09.14-.18.21-.27.04-.05.08-.09.13-.13.16-.15.33-.32.35-.6.2-.12.27-.32.33-.49.04-.1.07-.2.13-.28l.05-.07-.06-.06c-.1-.11-.2-.2-.31-.3-.23-.21-.45-.41-.53-.7l-.02-.07h-.07c-.08-.02-.17-.03-.25-.04-.18-.03-.36-.05-.53-.05-.21,0-.4-.07-.62-.23l-.05-.03-.05.02c-.17.07-.3.1-.44.03-.21-.09-.4-.08-.56.03-.04.03-.1.05-.12.04-.17-.03-.32.02-.46.07-.08.03-.16.06-.24.07-.19.02-.34.14-.37.31-.05.24-.21.38-.4.54-.27.23-.45.47-.58.75-.11.24-.26.49-.57.54-.05,0-.15.04-.21.11l-.09.11c-.21.27-.43.54-.46.93,0,.1-.02.13-.05.15-.31.18-.32.47-.34.72,0,.04,0,.08,0,.12-.02.24.01.41.1.5.05.06.1.12.15.18.12.16.25.32.46.41.08.04.18.08.25.14.31.27.67.43,1.14.53h0s.09.01.14.02c.08,0,.14.01.17.04.23.17.49.23.74.3.2.05.39.1.56.2.06.03.14.04.2,0,.12-.06.23-.03.37,0h.02s.06.02.08.02c.08,0,.15-.02.22-.04l.18-.05c.28-.07.56-.15.84-.24.05-.02.09,0,.17.05.08.04.17.1.29.06.04-.01.08-.03.11-.04.13-.05.21-.08.31-.04.06.02.11,0,.15-.01,0,0,.02,0,.02,0h.04s.17-.32.17-.32c.04,0,.07,0,.11-.01.11-.02.22-.03.33-.04.1,0,.35-.02.42-.3.01-.05.03-.07.09-.06.17,0,.29-.06.4-.2.03-.04.09-.08.15-.11.12-.06.27-.14.3-.34.01,0,.03-.01.05-.02.43-.09.69-.33.78-.73,0-.03.07-.08.11-.12.04-.03.08-.06.11-.1.06-.06.09-.15.08-.25,0-.09-.04-.16-.1-.2-.07-.05-.15-.1-.25-.15-.11-.05-.23-.1-.34-.15l-.16-.07h-.03c-.06.02-.13.04-.19.06-.13.04-.25.07-.37.07-.37,0-.69.18-.86.48-.17.31-.43.43-.78.53-.08.02-.16.02-.25.02-.05,0-.09,0-.14,0h-.08s-.06.39-.06.39l-.16.05c-.17.05-.35.1-.53.16-.53.18-1.08.23-1.7.18-.13-.01-.26-.06-.34-.12-.23-.18-.51-.33-.88-.47-.21-.08-.39-.22-.56-.35-.02-.02-.03-.03-.03-.03.03,0,.06.01.09.02.11.02.22.04.29.09ZM66.2,45.7c.17-.02.29-.12.38-.21.06-.06.11-.11.17-.13.15-.05.24-.16.31-.26.04-.06.09-.11.14-.16l.4.05c.09.01.15.06.22.17.08.12.07.2-.03.31-.1.1-.19.21-.31.33l-.18.19-.37.11h-.01c-.18.09-.27.04-.36-.03-.07-.05-.14-.11-.2-.17-.04-.03-.07-.07-.11-.1-.05-.04-.05-.11-.04-.12Z"/>
      <path class="cls-1" d="M45.75,42.67c-.06.02-.13.05-.2.07-.31.11-.63.22-.88.48-.05.05-.14.13-.22.16-.35.13-.57.42-.74.68-.15.23-.34.42-.56.6-.23.18-.41.39-.59.6-.07.09-.15.17-.22.26-.27.29-.39.57-.4.89,0,.07-.02.15-.06.22-.13.26-.19.54-.25.8-.03.12-.06.24-.09.36-.03.12-.05.25-.05.37-.01.16-.02.31-.09.44-.04.08-.02.19.06.35.04.09.1.16.15.23.02.03.04.05.05.08l.03.04h.05c.44.07.79,0,1.08-.18.23-.16.49-.23.75-.31h.04c.09-.04.19-.06.25-.15.12-.18.26-.29.44-.35.11-.04.21-.15.25-.24.07-.15.19-.24.38-.3.08-.02.14-.08.21-.13.02-.02.05-.04.07-.06h0c.17-.17.3-.28.47-.34.22-.08.36-.21.4-.4,0,0,0,0,0,0l.03.05c.09.17.17.31.24.46.01.03.02.06.01.08-.06.22.04.39.12.54.08.15.1.3.13.48,0,.04,0,.07.01.11.03.26.07.59.41.75.01.01.03.05.04.08.02.04.03.08.06.12l.02.03c.05.07.1.17.2.17.14.01.24.12.34.22.06.06.11.12.18.17l.05.03.36-.14c.08.06.16.09.23.09.16,0,.27-.15.35-.26.11-.15.18-.32.26-.48l.05-.12c.11-.25.19-.54-.08-.82-.02-.02-.03-.09-.03-.14,0-.04,0-.07-.02-.1v-.05s-.6-.26-.6-.26l-.02-.13c-.02-.13-.04-.26-.07-.38-.07-.32-.14-.69-.45-.98-.11-.1-.18-.25-.25-.39l-.04-.08q-.18-.34.14-.62c.34-.3.42-.76.2-1.07-.13-.19-.21-.38-.3-.6l-.02-.05c-.13-.31-.36-.49-.59-.66-.09-.07-.18-.13-.26-.21-.05-.04-.1-.05-.15-.06-.28-.05-.58-.08-.85.02ZM45.35,44.24l-.25.62.33.49s-.09.11-.11.18c-.06.22-.19.36-.43.45-.12.04-.19.12-.27.2-.06.06-.11.12-.18.16-.18.1-.33.25-.48.4-.06.06-.12.12-.18.17-.29.2-.52.37-.74.53-.01-.01-.01-.03,0-.09.1-.61.32-1.17.66-1.67.21-.15.37-.34.52-.53l.08-.09c.08-.1.19-.18.3-.26.1-.08.21-.16.3-.26.12-.13.27-.22.45-.3Z"/>
      <path class="cls-1" d="M23.18,43.55c-.09.06-.19.12-.29.17-.22.12-.44.25-.61.46-.12.15-.28.24-.51.27h-.09v.1s0,.08,0,.11c0,.03,0,.06.01.06-.14.16-.29.32-.45.49l-.11.12-.02.02c-.03.06-.06.12-.08.17-.04.1-.08.18-.15.25-.22.2-.43.44-.62.7-.08.11-.15.23-.21.34-.11.2-.22.38-.38.53-.05.04-.07.1-.09.15v.03c-.05.08-.08.15-.11.23-.06.16-.13.31-.2.45-.22.39-.18.76.14,1.17.3.39.6.59.97.63h.02s.02,0,.02,0c.85-.17,1.59-.47,2.27-.91.03-.02.05-.03.08-.05.06-.04.13-.08.19-.13l.06-.05c.15-.13.27-.23.47-.23.08,0,.16-.06.21-.12.02-.02.04-.04.06-.05.1-.07.17-.1.23-.09.05,0,.11.05.16.13.05.06.08.14.11.21,0,.02.01.03.02.04l-.08.39.03.04c.22.32.52.45.8.58.32.15.64.14.96-.02.16-.08.33-.14.5-.2l.09-.03c.11-.04.29-.1.33-.34v-.03s-.03-.11-.03-.11c-.02-.07-.05-.15-.07-.22l-.03-.07c-.12-.31-.25-.63-.62-.79-.08-.04-.13-.14-.14-.27,0-.05,0-.1-.01-.15,0-.06-.01-.11,0-.17,0-.06.02-.13.03-.19,0-.02,0-.04.01-.06v-.07s-.05-.04-.05-.04c-.06-.04-.11-.07-.17-.1-.11-.07-.21-.13-.31-.2-.07-.05-.06-.13-.04-.18.02-.06.05-.16.09-.19.21-.19.24-.44.27-.67,0-.05.01-.1.02-.14.05-.31-.04-.55-.26-.73-.11-.09-.15-.14-.13-.26.03-.13-.11-.28-.18-.33-.13-.1-.28-.21-.45-.24-.15-.03-.27-.1-.4-.18-.03-.02-.06-.04-.1-.06-.04-.02-.07-.04-.1-.07-.06-.04-.11-.08-.18-.11-.18-.08-.55-.25-.87-.03ZM23.67,45.71l.2.42-.03.09c-.03.1-.07.21-.11.32-.01.03-.04.1-.04.11-.26.07-.31.27-.35.44,0,.02,0,.03-.01.05l-.29.05-.12.49h0c-.05.07-.09.12-.11.13-.06.03-.12.06-.19.09-.11.05-.23.11-.34.18-.09.06-.16.13-.23.2-.06.06-.11.11-.17.16-.16.12-.36.16-.57.2-.07.01-.13.03-.2.04-.07.02-.19-.03-.29-.08l-.05-.02c-.11-.05-.14-.08-.1-.23.14-.6.16-.64.52-1.17l.09-.14c.1-.14.21-.28.31-.41.09-.11.18-.23.26-.34v-.02c.18-.23.34-.46.6-.56.11-.04.19-.15.24-.24.06-.12.15-.14.22-.14.03,0,.05,0,.07,0h.06c.26.07.5.13.62.38Z"/>
      <path class="cls-1" d="M61.49,47.33c.1-.11.21-.19.33-.29.19-.15.39-.3.51-.53,0,0,.03-.02.05-.03.21-.1.36-.25.47-.45.04-.07.14-.14.24-.2.36-.24.64-.56.9-.88l.13-.15v-.03c.03-.21.18-.31.4-.39.3-.11.47-.33.54-.7v-.03s-.01-.07-.01-.07c-.01-.04-.02-.08-.04-.12-.1-.23-.26-.39-.46-.46-.2-.07-.42-.04-.64.08-.18.1-.36.19-.54.29-.18.09-.36.19-.56.29-.12.07-.27.15-.37.26-.09.1-.16.21-.23.32-.06.09-.12.18-.18.26-.04.05-.09.09-.15.14-.13.11-.27.23-.29.44-.16.12-.23.28-.31.44-.11.23-.29.34-.62.38,0-.03,0-.06,0-.09,0-.15,0-.28-.03-.42-.04-.29-.09-.63-.17-.97-.07-.3-.29-.46-.58-.44-.19.02-.37.05-.54.1-.09.03-.17.08-.25.13-.03.02-.07.04-.1.06-.39.21-.54.49-.47.9.02.1.04.2.06.3.05.18.09.35.07.53,0,.09.04.16.08.22.02.03.05.07.05.1,0,.03,0,.08-.01.13-.02.08-.04.18.01.26.08.14.04.2-.07.34v.02s-.05.08-.06.13v.04s.14.34.14.34c-.15.11-.22.26-.22.45,0,.13,0,.27-.04.38-.11.28-.14.55-.15.75v.04s.02.03.02.03c.37.48.39.5.87.68h.03s.03,0,.03,0c.06-.02.1,0,.19.08.06.05.13.11.23.13l.07.02.04-.06c.1-.15.26-.19.44-.23.11-.03.23-.06.34-.12l.03-.02v-.03c.08-.14.15-.28.24-.45l.02-.03s.01-.01,0-.01c.21-.14.35-.3.31-.63-.04-.37.04-.76.12-1.07.01-.05.05-.11.11-.18Z"/>
      <path class="cls-1" d="M27.53,48.92s.02.09.03.14c.01.07.06.16.13.21.04.02.08.05.13.08.15.09.3.19.47.23.05.01.13.03.24.03.14,0,.32-.04.46-.21.03-.03.1-.07.15-.07.22-.01.41-.09.6-.17l.09-.04c.2-.09.38-.21.54-.33.12-.09.24-.17.36-.24.26-.14.53-.34.83-.61.04-.04.08-.09.12-.13.09-.11.15-.16.26-.17h.08s.02-.07.02-.07c.06-.17.16-.33.32-.5.14-.15.26-.28.46-.32.16-.03.34-.12.47-.23l.07-.06c.19-.16.38-.32.6-.42.07-.03.19-.13.2-.24.02-.16.06-.19.16-.21.12-.02.17-.18.17-.2.04-.15.08-.3.13-.46l.06-.22-.02-.04c-.04-.06-.09-.1-.14-.13-.09-.06-.13-.1-.12-.2.02-.15-.02-.27-.09-.36-.06-.06-.16-.13-.34-.13,0,0-.03-.02-.04-.03-.03-.03-.06-.06-.09-.08l-.03-.02c-.08-.04-.16-.09-.26-.09h0c-.26,0-.52.02-.77.04h-.09c-.06.01-.09.05-.12.07,0,0-.01.01-.02.02l-.03.02-.06.19-.26-.09-.05.04c-.34.28-.51.61-.54,1v.07s.34.16.34.16c0,.08.03.15.05.22.05.16.07.26,0,.36l-.29.11v.07c-.01.43-.23.74-.62.88-.3.11-.6.25-.72.62,0,0-.03.02-.04.03-.02.01-.03.02-.04.03-.07.06-.14.12-.21.18-.16.14-.32.27-.49.39-.04.02-.07.05-.11.07-.17.12-.33.23-.53.19,0-.03-.02-.05-.03-.08-.03-.07-.06-.14-.05-.19.05-.25.02-.48-.01-.7-.01-.1-.03-.2-.03-.3-.03-.42.04-.85.2-1.29.09-.24.19-.35.35-.37.27-.04.41-.23.54-.4l.05-.07c.11-.14.12-.31.05-.47-.09-.18-.24-.29-.43-.29-.36-.01-.7.13-.9.38-.15.19-.34.33-.54.47-.12.09-.25.18-.37.29l-.04.04v.06c.04.22,0,.45-.12.7-.09.17-.09.33-.02.5,0,.02,0,.07,0,.11,0,.03,0,.06-.01.09-.07.35-.08.69-.03,1.05.02.14.02.25-.01.38-.07.24-.03.48.02.71Z"/>
      <path class="cls-1" d="M35.54,46.53s.09.06.14.1c.07.05.14.11.22.15.28.16.59.32.99.35.4.03.78.21,1.12.4l-.05.07c-.09.12-.18.23-.25.34-.09.13-.18.19-.32.21-.19.03-.43.1-.53.4,0,.03-.09.07-.14.1-.04.02-.08.04-.11.06-.03.02-.07.04-.1.06-.08.04-.17.09-.23.17-.13.17-.29.3-.49.45l-.04.03c-.17.12-.4.29-.35.62v.04s.04.03.04.03c.31.26.35.28.67.29.01,0,.02,0,.03,0,.35,0,.63-.15.86-.45.03-.03.09-.12.12-.13.39-.05.68-.27.97-.48.03-.03.07-.05.1-.08l.29.05.03-.08s.02-.06.03-.09c.04-.12.06-.17.15-.2.26-.1.44-.24.55-.44.01-.02.06-.04.09-.06.03-.01.06-.03.08-.05.02,0,.03-.02.05-.03.06-.03.13-.06.16-.13.11-.24.31-.35.55-.42l-.06.49.27-.52s.02-.03.02-.04l.04-.03-.02-.13h-.04s-.02-.05-.02-.05c-.02-.03-.04-.07-.05-.09.21-.4.05-.74-.09-1.05l-.02-.05-.03-.02c-.25-.16-.52-.18-.7-.06-.13.08-.24.06-.38.02-.05-.01-.11-.03-.16-.04-.2-.03-.34-.09-.47-.21-.09-.09-.2-.14-.31-.19-.04-.02-.09-.04-.12-.06l-.06-.03-.23.17-.04-.02c-.07-.05-.15-.1-.22-.14l-.03-.02c-.15-.09-.31-.19-.55-.12-.12.04-.21-.06-.26-.16-.03-.08,0-.12.11-.22l.02-.02c.18-.16.38-.29.57-.43.18-.12.36-.25.53-.39.12-.1.26-.19.4-.28.16-.1.32-.2.47-.33.18-.16.32-.2.47-.13.11.04.22.03.33.02.04,0,.09,0,.13,0h.07l.03-.06q.09-.19.39-.34l.17-.09-.16-.1c-.13-.08-.14-.18-.13-.35,0-.06,0-.12,0-.18v-.05s-.59-.42-.59-.42l-.05.02c-.06.02-.11.04-.17.06-.14.05-.27.09-.4.15-.1.04-.18.12-.24.19-.33.35-.74.64-1.12.92-.09.07-.19.14-.28.2-.24.18-.49.36-.73.54-.21.16-.43.32-.64.48-.25.19-.44.38-.58.58l-.02.03v.03c0,.07,0,.13,0,.2,0,.14,0,.27,0,.41-.01.28.09.5.32.65Z"/>
      <path class="cls-1" d="M83.01,39.42c-.25-2.7-1-5.38-1.75-7.89-.59-1.97-1.4-3.91-2.42-5.76-1.15-2.1-2.59-4.1-3.85-5.77-1.14-1.52-2.44-3.05-3.98-4.67-.74-.78-1.55-1.51-2.33-2.23-.57-.52-1.17-1.06-1.73-1.61-.28-.27-.48-.75-.46-1.08.02-.33.11-.68.2-1.02.14-.51.28-1.04.16-1.52l-.05-.21c-.28-1.21-.56-2.45-1.86-3.27-.44-.27-.79-.73-1.12-1.18-.36-.48-.73-.97-1.23-1.26-1.46-.84-3.04-1.45-4.58-1.77-2.39-.49-4.9-.05-7.25,1.27-1.74.98-3.18,1.47-4.99.94-1.34-.39-2.82-.43-4.22-.43-1.49,0-3.01.09-4.48.19-.47.03-.94.06-1.42.09-.17,0-.34.08-.5.15-.07.03-.14.06-.21.08l-.24.08.23.11c.05.03.11.06.16.08.12.07.25.14.39.18.17.05.34.07.5.1.03,0,.06,0,.09.01-.03.09-.05.19-.07.28-.07.3-.15.58-.28.83-.17.3-.37.6-.57.88-.2.29-.4.58-.57.89-.12.23-.21.5-.29.77-.13.42-.26.82-.51.96-.6.33-1.3.51-1.99.67-.34.08-.69.17-1.02.27-.21.07-.41.19-.59.3-.07.04-.13.08-.2.12-.07.04-.06.13-.05.19,0,.01,0,.03,0,.04v.14s.31-.1.31-.1c.14-.04.28-.09.42-.13.03,0,.07,0,.11,0,.05,0,.11,0,.17,0,.26-.06.52-.11.78-.17.65-.13,1.32-.27,1.96-.47.43-.13.86-.31,1.27-.47.54-.22,1.09-.44,1.65-.57.65-.15,1.34-.24,2-.32.63-.08,1.27-.16,1.9-.29,1.25-.27,4.12.79,4.77,1.98.48.88.96,1.78,1.42,2.65.5.95,1.02,1.93,1.54,2.89.07.12.13.25.2.38.32.62.65,1.25,1.18,1.58.33.21.85.07,1.35-.07.22-.06.45-.12.65-.15.45-.07.9-.13,1.35-.2.72-.1,1.43-.21,2.16-.32.27-.04.55-.06.82-.09.51-.05,1.03-.1,1.54-.21,3.47-.75,6.14-.04,8.16,2.17,1.34,1.47,2.42,2.84,3.29,4.2.29.46.43,1,.58,1.58.12.46.24.94.45,1.36.17.34.45.64.73.93.35.36.67.7.73,1.08.2,1.26.22,2.58.24,3.85,0,.47.01.93.03,1.4.02.62.03,1.25.04,1.87.02,1.02.04,2.08.1,3.12.06,1.13.14,2.53.42,3.83.18.86.44,1.72.69,2.55.23.78.47,1.58.65,2.38.32,1.45.67,3.16.79,4.88.06.91-.03,1.86-.12,2.77-.04.44-.09.9-.11,1.35,0,.11.13.21.16.23.04.03.1.07.17.04.34-.14.67-.29,1-.43.21-.09.42-.19.63-.28.05-.02.11-.03.18-.04,0,0,0,0,0,0,.01.07.02.14.01.2-.02.14-.06.29-.1.42-.02.06-.03.12-.05.18l-.11.44.29-.35s.07-.09.11-.14c.1-.12.19-.23.29-.33.03,0,.08,0,.08,0,.08.1.16.23.24.36.19.31.33.55.51.52.65-.09,1.3-.28,1.92-.47.17-.05.34-.1.51-.15.19-.05.37-.13.55-.2.01,0,.03-.01.04-.02-.04.13-.08.27-.13.4-.04.13-.08.26-.13.39-.11.34-.23.7-.32,1.06-.03.12.04.23.11.34.02.04.05.08.07.12l.05.11.1-.06s.08-.04.12-.06c.12-.06.25-.11.28-.23.11-.36.19-.74.28-1.1.03-.13.06-.26.09-.39.17-.74.37-1.49.56-2.22.44-1.65.89-3.35,1.09-5.06.38-3.21.45-5.99.21-8.52ZM78.83,47.1c-.04.17.04.36.12.54.03.07.08.12.12.17.03.03.07.07.07.08-.01.06-.07.15-.16.22,0,0-.02-.02-.03-.02-.06-.05-.13-.11-.21-.14-.11-.04-.29-.03-.39.04-.42.29-.85.6-1.26.9l-.27.2c-.02-.06-.04-.13-.06-.2-.08-.26-.16-.52-.3-.75-.12-.19-.28-.35-.43-.51-.15-.15-.29-.3-.4-.47-.29-.45-.56-.97-.87-1.65-.12-.27-.22-.56-.31-.84-.05-.17-.11-.33-.17-.49-.09-.25-.2-.51-.32-.76-.04-.09-.09-.18-.14-.26-.09-.14-.17-.28-.19-.42-.06-.3-.03-.63,0-.95.03-.31.07-.63.11-.93.02-.18.05-.37.07-.55,0-.07,0-.13,0-.2,0-.03,0-.05,0-.08v-.11s-.12.01-.12.01c-.01,0-.02,0-.03,0-.04,0-.09,0-.14.03-.06.03-.11.07-.17.1.01-.09.02-.19,0-.28-.07-.45-.15-.9-.23-1.35-.15-.88-.31-1.78-.4-2.68-.06-.56-.05-1.15-.04-1.71,0-.37.02-.76,0-1.14,0-.25-.05-.49-.1-.73-.04-.19-.07-.38-.09-.57,0-.08.02-.16.05-.26.03-.11.07-.21.06-.33-.02-.3-.05-.6-.08-.89-.04-.41-.08-.83-.09-1.25,0-.15.06-.31.12-.47.05-.14.1-.28.13-.42.05-.36.1-.73.15-1.09.09-.67.18-1.36.3-2.03.1-.01.35,0,.52,0,.13,0,.26,0,.36,0,.1,0,.2,0,.3,0,.06,0,.13,0,.19,0,.05,0,.1,0,.15,0,0,.02,0,.04-.01.05-.04.06-.09.12-.14.19-.02.03-.05.06-.07.08l-.1.13,1.16.3-.08-.28c-.02-.07-.05-.15-.06-.21.08.01.14.03.2.05.11.03.23.06.34.08.24.05.49.1.63.24.46.45.89.96,1.3,1.46.14.17.29.34.43.51l-.28.24.3.36.19-.2c.09-.09.17-.18.27-.27.04-.04.09-.07.13-.11.04.05.07.09.1.14-.05.04-.12.09-.14.15-.06.16-.11.33-.05.46.13.24.28.47.42.7.25.41.52.83.7,1.27.09.22.08.48.07.76,0,.2-.02.4.01.6.03.17.15.3.26.44.04.05.08.09.12.14.08.38.14.76.19,1.13.02.14.04.28.07.42.04.23.09.47.17.73.06.2.11.4.17.6.18.64.37,1.3.59,1.94.11.31.26.59.42.87.08.14.16.29.23.42,0,0,0,0,0,.02-.02,0-.03,0-.05,0-.03,0-.07,0-.1,0h-.05c-.12,0-.23-.01-.27.08-.04.09-.06.19-.08.28,0,.03-.01.07-.02.1l-.03.13h.22c.06-.01.11-.02.17-.02.04,0,.09,0,.12,0,0,.15,0,.31,0,.46,0,.3,0,.6.02.9.01.2.06.39.11.58.04.15.07.31.09.46,0,.05-.03.12-.06.18-.03.05-.05.11-.07.16-.08.27-.16.55-.23.82-.15.58-.31,1.19-.57,1.73-.36.77-.85,1.49-1.32,2.19-.1.15-.2.3-.29.44-.03.02-.14.01-.21,0-.1,0-.19,0-.28.01-.27.06-.43.15-.45.26ZM69.46,16.77c-.18-.08-.35-.16-.5-.28-.02-.03-.02-.16-.02-.23,0-.02,0-.04,0-.06l.3.02c.08.19.15.37.22.55ZM65.17,9.22c-.14.26-.38.47-.63.69-.09.08-.19.17-.28.26.08-.46.19-.96.33-1.51.02-.04.19-.09.29-.12.04-.01.08-.02.12-.04.02.07.05.14.07.2.07.2.16.42.1.51ZM64.73,10.72s.05.04.08.05c-.02,0-.05.01-.07.02h-.04c-.17.08-.37.15-.4.29-.01.05-.02.11-.02.17-.08-.1-.14-.2-.13-.28.02-.16.04-.33.06-.5l.52.25ZM64.63,12.2c.05.03.1.07.11.09,0,.15-.07.32-.14.46-.02,0-.05,0-.07,0l.09-.54ZM64.55,12.03h0s0,0,0,0ZM67.57,14.91c-.03-.06-.05-.11-.08-.16l-.05-.09-.09.06c-.1.06-.2.12-.3.18-.23.14-.48.29-.71.45-.08.06-.15.13-.23.21-.07.07-.17.19-.22.18-.18-.01-.45-.22-.46-.33-.03-.17.08-.39.18-.58,0-.02.02-.04.03-.05.02,0,.04.02.07.03.09.03.21.07.29.09.12.02.23.03.35.03.05,0,.1,0,.14,0h.03s.03-.01.03-.01c.11-.06.22-.13.34-.2.28-.17.54-.34.76-.31.23.03.45.26.67.47.08.08.15.15.23.22,0,.01-.01.02-.02.03h-.09c-.26,0-.53.01-.77-.04-.03-.02-.08-.12-.1-.18ZM66.41,13.77c-.23-.05-.46-.1-.68-.14-.03,0-.06,0-.09,0-.02,0-.03,0-.05,0-.02,0-.03,0-.05,0h-.01c-.23,0-.44,0-.63-.03-.01-.03-.03-.09-.04-.13.14-.08.3-.13.45-.19.25-.09.51-.18.76-.26l.21-.07.19.84h-.06ZM65.53,13.73h0s0,0,0,0ZM67.5,16.92c.21-.15.4-.27.59-.39,0,.01,0,.02.01.03.02.04.05.11.06.15-.21.18-.45.34-.67.5-.01,0-.02.02-.03.02l.04-.32ZM63.94,12.28c-.09.03-.18.04-.27.06v-.06c.03-.23.05-.47.07-.7.07.24.13.47.2.71ZM60.03,10.97s-.04,0-.06.01c-.12.02-.24.04-.35.04-.12,0-.23-.04-.36-.08-.04-.01-.07-.02-.11-.03-.01-.04-.02-.08-.03-.12h.08c.27.05.54.09.81.13,0,.01,0,.03,0,.04ZM62.33,8.33c-.13.08-.26.17-.39.25-.04.03-.09.06-.13.1-.05.04-.14.11-.16.12-.21-.07-.43-.16-.63-.26.14,0,.29-.01.42-.05.21-.06.4-.23.56-.38l.06-.05c.22-.2.43-.41.63-.62.05-.05.1-.1.15-.15.01.03.03.07.04.1.08.17.16.34.17.5.03.43,0,.82-.09,1.14-.04.13-.16.25-.3.37,0,0-.01.01-.02.02l-.03-.51c.02-.23.03-.42.03-.59v-.2s-.32.22-.32.22ZM58.29,10.85s0,0,0,0c-.01.04-.03.09-.04.12-.25.06-.51.09-.76.13-.02,0-.04,0-.07,0l.09-.16c.05-.01.1-.02.15-.03.17-.04.32-.07.47-.09.05,0,.1,0,.16.02ZM56.24,9.86s-.02.02-.02.03c-.16-.08-.31-.18-.46-.27l-.06-.04c0-.05,0-.1-.01-.15.19.14.38.28.56.42ZM54.15,11.31c0-.08.04-.17.08-.27,0-.01,0-.02.01-.03.08.03.2.08.21.11,0,.05-.05.14-.1.22-.01.02-.02.03-.03.05-.01,0-.03-.01-.04-.02-.04-.02-.1-.04-.13-.06ZM52.62,9.42c0,.09-.02.24-.03.26-.05.02-.15-.01-.24-.05-.02,0-.04-.01-.06-.02,0-.01,0-.03,0-.04,0-.05.02-.14.02-.15.06-.03.16-.02.26,0,.01,0,.03,0,.04,0Z"/>
      <path class="cls-1" d="M5.37,62.67s.03-.04.05-.06c.06-.07.12-.14.09-.23-.07-.22-.15-.44-.22-.65-.15-.41-.3-.84-.37-1.26-.05-.32,0-.65.06-1.01.02-.12.04-.24.05-.37l.29.04v-.12s.01-.08.02-.12c.02-.16.03-.28-.06-.33-.23-.11-.48-.21-.73-.23-.15,0-.29.05-.43.11v-.04c.03-.18.06-.36.09-.53.02-.12.06-.25.09-.37.02-.06.03-.11.04-.17l.03-.12-.25-.03c-.1-.01-.2-.02-.3-.03-.13,0-.25,0-.38,0h-.04s0-.05,0-.08c.01-.15.03-.3.06-.44.02-.08.05-.16.09-.24.02-.04.04-.08.05-.12l.05-.13h-.14s-.08-.02-.12-.02c-.09,0-.17,0-.24-.03-.17-.05-.21-.08-.21-.08l-.02-.11c-.11-.56-.21-1.13-.25-1.7-.01-.19.08-.4.17-.6.02-.05.04-.09.06-.14,0-.02.06-.05.1-.07.04-.02.09-.05.13-.09.06-.05.03-.13.02-.16-.06-.14-.12-.16-.16-.16-.06,0-.12.01-.17.02-.06.01-.12.02-.17.02-.12-.02-.22-.06-.23-.07-.04-.15-.05-.31-.07-.48-.01-.12-.03-.24-.05-.36-.02-.1-.12-.09-.18-.09-.03,0-.11,0-.13,0-.07-.04-.14-.12-.14-.17-.03-.19-.04-.39-.06-.58,0-.11-.02-.23-.03-.34-.04-.38-.08-.76-.12-1.14-.05-.5-.11-1.01-.16-1.51,0-.05,0-.11,0-.17,0-.03,0-.06.01-.09v-.11s-.1,0-.1,0c0,0-.02,0-.03,0-.05,0-.11-.02-.17.03-.05.04-.09.08-.14.13-.02-.1-.04-.2-.05-.3-.01-.18-.03-.37-.05-.55-.05-.44-.1-.89-.05-1.32.08-.74.22-1.48.36-2.2.06-.34.13-.67.18-1.01.02-.09.02-.18.02-.26,0-.04,0-.07,0-.11v-.12s-.12.01-.12.01c-.04,0-.08,0-.12,0-.1,0-.19.01-.29.04-.02,0-.05.01-.07.02.03-.04.05-.08.08-.11.05-.07.12-.12.19-.18.03-.03.07-.06.1-.09l.09-.08-.09-.08s-.05-.05-.07-.07c-.07-.07-.14-.14-.24-.17-.06-.01-.12,0-.17.02.02-.06.03-.13.06-.18.04-.08.08-.16.14-.24.09-.15.19-.31.22-.49.02-.16,0-.32-.02-.48-.02-.18-.05-.35,0-.49.09-.26.25-.49.42-.74.09-.13.18-.26.26-.4l.02-.03v-.14c-.12-1.23-.23-2.45-.34-3.66,0-.07,0-.15-.01-.22,0-.11,0-.22-.02-.33-.01-.08-.1-.1-.14-.11-.22-.05-.26.02-.28.05l-.03.05c-.09.15-.2.33-.23.52-.07.47-.15.94-.23,1.42-.21,1.24-.42,2.52-.51,3.8-.08,1.29-.02,2.6.04,3.88.02.4.04.8.05,1.2.01.33.02.67.03,1,.03,1.13.06,2.29.23,3.41.13.82.38,1.62.62,2.4.16.51.32,1.03.45,1.55.1.39.15.81.21,1.21.08.58.16,1.17.36,1.72.68,1.85,1.48,3.67,2.27,5.44l.15.34c.1.22.31.37.52.52.09.07.18.13.26.19l.09.08.07-.1Z"/>
      <path class="cls-1" d="M7.64,61.61c.08.1.16.2.23.31.25.37.49.75.73,1.12l.23.36h-.01s.06.08.06.08v.02c.03.06.05.11.06.17.07.21.14.41.25.59.07.12.17.21.27.29.04.03.08.07.12.11l.09.09.07-.1s.02-.03.04-.05c.06-.08.12-.15.06-.22-.19-.26-.39-.51-.59-.77l-.14-.18c0-.06.01-.12.02-.19.02-.16.05-.33-.02-.46-.18-.37-.38-.74-.57-1.1-.21-.39-.43-.8-.62-1.21-.24-.51-.5-1.02-.74-1.52-.67-1.35-1.36-2.75-1.85-4.19-.43-1.27-.63-2.64-.82-3.97-.06-.43-.12-.85-.19-1.28-.07-.46-.16-.92-.24-1.37-.25-1.38-.51-2.8-.5-4.19,0-.55-.11-1.12-.22-1.66-.23-1.12-.45-2.19.3-3.23.04-.06.04-.14.03-.2,0-.03,0-.06,0-.07.06-.27.12-.55.18-.82.13-.58.26-1.19.36-1.78.06-.37.04-.75.02-1.12,0-.09-.01-.19-.01-.28,0-.05,0-.13-.36-.18-.08,0-.13.01-.14.07-.36,1.14-.66,2.17-.93,3.13-.03.1.06.14.15.2.03.02.08.05.11.07-.01.02-.03.04-.04.06-.03.04-.06.08-.07.12-.05.1-.11.2-.17.3-.15.24-.3.48-.34.75-.07.43-.07.88-.07,1.31,0,.18,0,.35,0,.53,0,.08,0,.16.01.24v.05s.05.03.05.03c.04.02.14.03.19,0,.02,0,.03-.01.05-.02l-.48,1.06.27-.14s.07-.03.1-.05c.08-.04.15-.08.22-.11,0,0,.03,0,.05,0,0,.04.02.08.01.1-.06.11-.14.21-.21.31-.14.19-.28.4-.36.62-.09.27-.07.65.06.93.07.16.2.28.33.4.12.11.23.21.28.33.14.29.02.62-.1.96-.18.49-.39,1.06.25,1.56.01.02.02.1.02.14,0,.02,0,.04,0,.06.03.22.06.43.09.65.07.51.14,1.03.15,1.54,0,.49-.05.99-.11,1.47-.03.27-.06.53-.08.8-.01.14.02.28.05.41l.02.09c.01.06.06.1.09.13,0,0,.02.01.03.02l.09.09.07-.1s.04-.06.06-.09c.03-.06.07-.11.11-.14.03-.02.12-.03.17-.03l.03.09c.11.32.22.66.27.99.04.25.04.52.04.78,0,.12,0,.24,0,.36v.11s.08,0,.08,0c-.01.02-.03.04-.03.07-.05.15-.06.31-.08.47,0,.06-.01.12-.02.18v.11s.09.01.09.01c.33.03.42.1.44.16.03.07-.04.2-.17.36l-.12.14.18.03s.04,0,.06,0c.04,0,.07,0,.11.02.06.02.13.03.2.05.09.02.25.05.28.08.08.2.12.41.17.63.05.22.1.45.18.67.09.22.21.43.33.63.13.22.26.44.34.66.03.08.04.14.05.18.03.14.06.2.25.28.02.01.05.08.06.12l.02.04c.07.16.15.32.22.48.15.33.3.67.47,1,.09.17.22.33.34.48Z"/>
      <path class="cls-1" d="M69.52,72.88c-.11-.07-.21-.13-.3-.08l-.16.1c-.5.31-1.01.62-1.49.99-.49.37-.97.76-1.43,1.14-.33.27-.66.54-.99.8-.04.03-.11.05-.18.07-.1.03-.22.06-.28.15-.1.13-.17.28-.25.43-.11.22-.22.43-.38.53-.26.15-.56.24-.87.33-.26.07-.52.15-.77.27-.23.11-.44.28-.63.43-.19.15-.38.3-.58.4-.15.07-.34.1-.52.13-.23.03-.48.07-.67.2-.16.11-.23.32-.29.53-.06.17-.11.35-.21.4-.82.45-1.72.86-2.69,1.19-.13.05-.31,0-.49-.05-.21-.05-.42-.11-.61-.05-.19.06-.32.23-.46.39-.11.14-.23.29-.36.32-.59.17-1.21.31-1.8.44-.62.14-1.26.28-1.88.46-.3.09-.58.25-.85.41-.33.2-.64.38-.97.42-.81.11-1.65.14-2.46.18-.68.03-1.38.06-2.07.13-.49.05-.96.2-1.43.35-.26.08-.53.16-.79.23-.04,0-.13-.03-.2-.07-.05-.02-.1-.05-.14-.06l-.18-.06.04.19s.02.09.03.15c.03.18.05.32.16.34.08.02.16.02.24.02.15,0,.29-.02.42-.04.13-.02.25-.06.37-.09.16-.05.31-.09.47-.1.63-.05,1.27-.1,1.89-.13,1.3-.08,2.65-.17,3.95-.39.96-.17,1.9-.52,2.8-.86.44-.17.9-.34,1.35-.49.93-.3,1.88-.6,2.81-.89l.98-.31h.01c.11-.06.23-.11.34-.16.3-.13.57-.26.84-.42l.31-.19c.89-.54,1.81-1.1,2.69-1.7,1.84-1.27,3.69-2.59,5.48-3.87l.09-.06c.38-.27.74-.57,1.08-.86.1-.08.2-.17.3-.25.19-.16.38-.32.56-.49.08-.07.17-.15.25-.22l.12-.1-.14-.07s-.06-.03-.09-.06Z"/>
      <path class="cls-1" d="M12.91,68.12c-.17-.09-.34-.18-.44-.3-.44-.53-.86-1.08-1.28-1.62-.21-.27-.42-.54-.63-.81-.05-.06-.11-.08-.17-.1-.02,0-.04-.01-.05-.02l-.16-.08v.18s0,.05,0,.07c0,.09-.02.19.06.24.17.11.16.31.13.61-.03.32-.08.73.4.88-.11.01-.23.04-.34.06-.33.06-.66.12-.93.03-.52-.18-1.01-.51-1.48-.84l-.18-.12c-.18-.13-.34-.3-.5-.48-.07-.08-.15-.17-.22-.25l-.22-.23.04.32c.01.08.01.16.01.24,0,.2,0,.41.12.55.64.85,1.31,1.7,1.97,2.53.2.25.4.5.6.75l.02.02.08.03c.15.06.29.11.44.12,0,0,0,0,.01,0,.09,0,.12-.09.14-.17.01-.04.03-.11.05-.13.07-.06.13-.12.2-.18.2-.18.4-.37.62-.45.43-.16.9-.28,1.35-.39.19-.05.38-.09.57-.14l.23-.06-.2-.13c-.08-.05-.16-.09-.25-.14Z"/>
      <path class="cls-1" d="M80.18,57.13v-.17s-.15.07-.15.07c-.03.01-.06.02-.09.03-.11.04-.21.07-.23.17-.1.64-.52.78-1.02.95-.24.08-.49.17-.7.32-.31.23-.53.56-.75.89-.08.12-.16.24-.24.36l-.03.04.02.05c.07.21.17.43.27.64.2.43.41.87.3,1.14-.39.94-.92,1.84-1.44,2.71-.23.38-.46.77-.68,1.16-.05.1-.06.21-.06.32,0,.04,0,.08,0,.12l-.02.15.15-.03s.07-.01.11-.01c.12-.01.24-.02.3-.12l.22-.36c.46-.76.93-1.55,1.35-2.34.82-1.57,1.69-3.29,2.65-5.25.08-.17.07-.38.06-.58,0-.08,0-.17,0-.25Z"/>
      <path class="cls-1" d="M4.25,32.75c0,.08,0,.16,0,.24v.13s.12-.01.12-.01c0,0,.02,0,.03,0,.05,0,.12,0,.17-.06.22-.32.46-.64.69-.95.55-.74,1.12-1.5,1.54-2.33.44-.87.76-1.81,1.07-2.73.14-.42.29-.86.45-1.29.15-.33.26-.61.36-.87.03-.09-.05-.13-.14-.18-.07-.03-.16-.08-.21,0-.06.09-.11.18-.16.27-.08.15-.16.29-.25.41-.09.12-.2.24-.31.35-.14.14-.28.29-.39.47l-.07.1c-.38.57-.77,1.16-1.08,1.78-.12.26-.16.55-.2.84-.02.15-.04.3-.06.43,0,0-.04.03-.06.04-.04.02-.09.05-.12.09-.06.06-.12.12-.18.17-.16.15-.33.31-.42.51-.29.68-.51,1.38-.71,2.04-.06.18-.06.37-.06.56Z"/>
      <path class="cls-1" d="M40.67,80.83c.09-.03.18-.06.27-.09l.29-.08-.28-.12c-.08-.03-.17-.08-.25-.12-.19-.1-.39-.21-.61-.21-.6-.02-1.22-.02-1.81-.02-.6,0-1.22,0-1.83-.02-.71-.02-1.31-.1-1.82-.25-.77-.22-1.55-.47-2.31-.72-.48-.16-.95-.31-1.43-.46-.3-.09-.6-.17-.9-.25-.38-.1-.77-.2-1.14-.33-.52-.18-1.04-.37-1.55-.56-.57-.21-1.17-.43-1.76-.63-.13-.04-.25.1-.41.31-.04.06-.09.11-.13.15-.05.06-.04.15-.04.17,0,.05.03.08.06.1.07.04.14.06.22.07l.69.1c.63.09,1.25.19,1.88.29,0,0,0,.02,0,.02-.02.03-.05.05-.09.08-.02.02-.04.03-.06.05l-.11.09.12.08s.05.03.07.05c.06.04.12.09.21.11.67.16,1.33.31,2.01.46l1.02.23.56.2c.51.18.99.35,1.48.54.23.09.46.2.69.3.47.22.95.45,1.45.49.95.08,1.92.1,2.88.1.35,0,.71,0,1.05,0,.32,0,.64,0,.96,0,.21,0,.42-.07.62-.14Z"/>
      <path class="cls-1" d="M73.86,56.24l-.05-.22-.14.18c-.04.05-.09.11-.13.16-.1.12-.21.24-.28.38-.13.24-.25.48-.36.72-.08.16-.16.33-.24.49l-.82,1.59c-.66,1.29-1.35,2.63-2.02,3.95-.06.12-.04.25-.03.38,0,.05.01.1.01.15v.14s-.02-.02-.03-.02l-.09-.08-.07.09c-.05.06-.1.13-.15.19-.12.14-.23.29-.32.46-.07.13-.12.28-.17.42-.07.2-.13.38-.25.53-.29.36-.57.73-.86,1.1-.86,1.11-1.75,2.25-2.74,3.25-1.45,1.46-3.08,2.79-4.65,4.07l-.34.28c-1.04.85-1.99.94-2.92.27-.32-.23-.59-.55-.85-.86-.69-.82-1.41-1.66-3.04-1.1-1.43.49-2.92,1.25-3.14,3.19-.08.76-.15,1.59-.21,2.55,0,.12.1.21.19.29.03.03.07.06.1.09l.08.09.08-.1s.05-.06.08-.08c.07-.07.14-.15.17-.25.19-.58.37-1.17.54-1.74l.05-.16s.05-.19-.02-.28c-.06-.07-.18-.09-.27-.08-.03,0-.06,0-.09.02.04-.09.08-.17.14-.23.13-.12.27-.23.4-.34.18-.14.37-.28.52-.45.23-.25.42-.52.61-.79.07-.1.14-.2.21-.29.03-.05.04-.1.05-.14,0-.02,0-.03,0-.05.01-.04.03-.09.04-.13.07.05.15.1.22.15.03.02.06.04.1.06.05.03.1.06.15.1.03.03.07.04.12.03.11-.02.19-.14.31-.34.04-.06.09-.14.13-.2.01.07.02.23,0,.54v.14s.13-.04.13-.04c.02,0,.05-.02.07-.02.03,0,.07-.03.08-.02.16.03.32.05.48.07.43.06.87.12,1.26.26.13.05.24.24.34.43.06.11.13.23.21.34l.03.03h.04c.08.02.15.03.23.03.19.02.36.04.53.09.19.05.4.14.6.22.43.17.87.35,1.26.25.47-.12.88-.45,1.28-.76.21-.17.43-.34.66-.48.34-.21.74-.4,1.23-.57.21-.08.44-.13.65-.18.21-.05.43-.11.64-.18.11-.04.13-.18.16-.34,0-.05.01-.1.03-.15l.06-.23-.47.26c-.21.12-.42.23-.64.35-.03.02-.06.03-.1.05.02-.06.04-.12.07-.14.63-.48,1.28-.95,1.91-1.41.47-.34.94-.69,1.4-1.03.09-.07.16-.17.22-.27.02-.04.05-.08.08-.12l.11-.15-.18-.02s-.06,0-.09,0c-.07,0-.13,0-.19-.02,0,0,0,0,0,0,.04-.05.09-.11.13-.16.17-.21.35-.43.56-.61.15-.13.32-.25.48-.37.19-.14.39-.28.57-.45.11-.11.17-.26.23-.41.04-.1.07-.2.13-.27.07-.11.16-.21.26-.32.12-.14.25-.29.34-.46.33-.63.66-1.3.98-2.02.12-.28.2-.59.28-.89l.05-.2c.02-.09-.05-.15-.13-.21,0,0,0,0,0,0l.13-.07s.1-.05.16-.07c.15-.06.3-.11.36-.24.1-.2.18-.42.25-.64.05-.15.1-.3.16-.45.04-.1.14-.22.27-.31.15-.11.31-.22.46-.33.16-.11.31-.21.47-.33l.02-.02v-.03c.07-.13.12-.27.17-.4.12-.33.24-.65.42-.92.1-.15.26-.29.41-.42.19-.17.39-.34.5-.57.25-.54.42-1.17.49-1.84.03-.3-.06-.62-.14-.92-.04-.13-.07-.26-.1-.39Z"/>
      <path class="cls-1" d="M24.87,76.89c-.08-.1-.17-.2-.29-.21-.12-.02-.25,0-.37.01-.14.02-.28.04-.36-.01-.65-.44-1.3-.9-1.92-1.34-.69-.49-1.41-1-2.13-1.48-.49-.32-1.03-.58-1.55-.83-.18-.09-.36-.17-.54-.26l-.35-.17.22.33c.06.09.12.19.18.29.16.28.34.56.59.74.73.52,1.51.97,2.31,1.42,1.16.65,2.4,1.32,3.78,2.03.02.01.05.02.07.02.09,0,.19-.08.31-.17.05-.04.09-.07.14-.1l.12-.07-.1-.09s-.06-.06-.09-.1Z"/>
      <path class="cls-1" d="M1.19,33.17l.02.17.14-.09s.09-.05.14-.07c.13-.06.26-.13.31-.25.35-.92.7-1.86,1.04-2.77.16-.43.31-.85.47-1.28.11-.17.22-.34.34-.51.28-.41.57-.83.74-1.29.09-.24-.05-.55-.18-.84-.06-.12-.11-.25-.15-.36l-.05-.15-.12.1s-.03.02-.05.03c-.05.03-.11.07-.14.14l-.21.52c-.28.67-.56,1.37-.82,2.07-.52,1.41-1.03,2.83-1.5,4.15-.04.1-.01.22,0,.32,0,.04.02.08.02.12Z"/>
      <path class="cls-1" d="M45.97,79.13c.2.19.34.43.5.69.07.11.14.23.21.33l.54.8-.45-1.13c-.08-.2-.16-.41-.24-.61,0-.02-.01-.05-.02-.07v-.03c-.16-.76-.83-1.47-1.64-1.73-.53-.17-1.02-.1-1.35.2-.43.4-.74.92-1.05,1.42-.12.2-.24.4-.37.6-.05.08-.04.17-.02.25,0,.03,0,.05.01.08v.23s.41-.38.41-.38c.56-.55,1.15-1.11,1.74-1.67.09.1.16.2.24.3l.02.03s.05.07.08.1c.08.1.15.21.25.3.07.06.16.04.24.01.02,0,.04-.01.06-.02l.21-.04-.24-.21c-.07-.06-.13-.11-.18-.17,0,0,0,0,0,0,.09.06.19.11.28.17.27.16.55.33.78.54Z"/>
      <path class="cls-1" d="M31.23,82.84c-.05-.08-.1-.18-.2-.21-1.17-.37-2.31-.72-3.52-1.1l-.73-.23h0c-.09-.02-.17-.05-.25-.07-.22-.06-.43-.12-.65-.16-.1-.02-.19.01-.28.04-.03,0-.06.02-.1.03l-.16.03.1.13s.02.04.04.06c.04.06.08.14.16.17,1.64.59,3.34,1.21,5.05,1.79.02,0,.05.01.07.01.11,0,.23-.08.34-.16.05-.04.1-.07.15-.1l.11-.06-.07-.1s-.04-.05-.05-.08Z"/>
      <path class="cls-1" d="M37.45,84.14c-.1-.06-.21-.12-.33-.14-1.2-.21-2.38-.41-3.51-.59-.11-.02-.22.02-.33.06-.04.01-.08.03-.12.04l-.21.05.17.13s.06.05.08.07c.07.07.15.13.24.17.34.11.68.21,1.04.32l.4.12h.02c.75.06,1.53.12,2.29.16,0,0,.01,0,.02,0,.1,0,.19-.04.27-.08.03-.02.06-.03.1-.04l.23-.09-.22-.11s-.09-.05-.13-.07Z"/>
      <path class="cls-1" d="M72.67,68.94c-.09.03-.19.05-.25.13-.61.72-1.33,1.58-2.04,2.47-.08.1-.09.23-.1.36,0,.05,0,.1-.02.15l-.03.17.16-.05s.09-.02.13-.03c.13-.02.26-.04.33-.14.16-.19.28-.4.41-.62.05-.08.09-.15.14-.23.16-.19.33-.38.49-.56.32-.37.63-.73.93-1.1.08-.09.07-.22.07-.35,0-.05,0-.09,0-.13l.02-.17-.16.07s-.06.02-.09.03Z"/>
      <path class="cls-1" d="M24.77,80.69c-.19-.13-.41-.23-.61-.32-.06-.03-.12-.06-.18-.08-.61-.29-1.21-.58-1.82-.86-.11-.05-.22.07-.24.1-.02.03-.03.07-.02.12,0,.03.03.1.09.13.87.45,1.91.98,2.99,1.51l.33.17-.25-.4c-.08-.13-.17-.28-.3-.37Z"/>
      <path class="cls-1" d="M5.84,62.94c-.05-.1-.18-.1-.33-.1-.05,0-.09,0-.13,0h-.11s0,.1,0,.1c0,.03,0,.06,0,.09-.01.08-.02.18.01.27.08.2.18.39.27.6.06.12.12.25.18.38l.02.03c.15.17.3.31.44.45l.08.07.07-.08s.03-.03.05-.05c.08-.07.15-.13.11-.22-.2-.5-.41-1.04-.66-1.55Z"/>
      <path class="cls-1" d="M41.9,84.21l-.03-.03h-.04c-.44.06-.85.13-1.33.21-.08.01-.16.03-.24.04l-.42.08.28.14s.07.04.11.06c.09.06.19.11.3.13.32.04.66.07,1,.07.06,0,.12,0,.19,0,.13,0,.25-.09.36-.17.04-.03.09-.06.13-.09l.13-.07-.11-.1c-.1-.09-.19-.18-.32-.27Z"/>
      <path class="cls-1" d="M20.15,78.47c-.33-.31-.62-.59-.96-.83-.09-.07-.22,0-.35.06,0,0-.01,0-.02,0l-.02-.06s-.02-.05-.02-.08c-.02-.07-.04-.15-.1-.21-.19-.19-.37-.39-.56-.59-.6-.64-1.23-1.29-1.89-1.9-.21-.19-.5-.27-.78-.35-.12-.03-.25-.07-.36-.11l-.2-.07.06.2c.03.09.05.2.06.31.04.25.09.52.26.66.78.63,1.6,1.23,2.41,1.81.22.16.44.32.66.48l.03.02h.04c.06,0,.11-.01.17-.02h-.03s.14.13.14.13c.08.07.16.13.24.2.21.17.42.35.65.5.06.04.12.05.19.05s.15-.01.22-.03c.03,0,.07-.01.1-.02l.22-.03-.16-.15Z"/>
      <path class="cls-1" d="M32.83,83.26c-.26-.11-.53-.22-.82-.33l-.05-.02-.04.02c-.11.06-.19.12-.27.18l-.09.06.07.09s.04.05.05.09c.05.09.11.19.21.21.26.05.53.06.78.06h.05s0,0,0,0c.09,0,.12-.08.16-.22.02-.09-.02-.13-.06-.14Z"/>
      <path class="cls-1" d="M20.87,78.61l-.03-.02h-.04c-.15.04-.28.07-.41.1l-.13.03.06.12s.02.04.02.06c.03.07.06.15.14.18.24.09.51.17.85.25.01,0,.02,0,.03,0,.07,0,.12-.07.16-.13.01-.02.02-.03.03-.05l.07-.09-.1-.06c-.21-.13-.42-.26-.65-.4Z"/>
      <path class="cls-1" d="M48.73,80.03c-.09.02-.11.12-.13.22,0,.03,0,.05-.02.08l-.04.16.16-.02c.27-.04.55-.08.84-.12h.07s.01-.08.01-.08c.02-.1.02-.2.02-.28v-.13s-.32.06-.32.06c-.2.04-.4.07-.6.13Z"/>
      <path class="cls-1" d="M4.13,33.35l-.02-.06h-.06c-.09-.03-.17-.03-.24-.02h-.11s.14,1.26.14,1.26l.13-.05s.05-.02.07-.02c.09-.02.18-.05.21-.14.05-.13.06-.29.04-.44-.02-.12-.06-.23-.1-.35-.02-.05-.04-.11-.06-.17Z"/>
    </g>
  </g>
</svg>